<svg xmlns="http://www.w3.org/2000/svg" viewBox="0 0 256 256" role="img" aria-label="Local CSS IntelliSense icon">
  <defs>
    <radialGradient id="bg" cx="50%" cy="45%" r="75%">
      <stop offset="0%" stop-color="#244d86"/>
      <stop offset="65%" stop-color="#152f58"/>
      <stop offset="100%" stop-color="#0b1528"/>
    </radialGradient>
    <linearGradient id="stroke" x1="0%" y1="0%" x2="100%" y2="100%">
      <stop offset="0%" stop-color="#d3e6ff"/>
      <stop offset="100%" stop-color="#8fc2ff"/>
    </linearGradient>
    <filter id="outerGlow" x="-20%" y="-20%" width="140%" height="140%">
      <feDropShadow dx="0" dy="0" stdDeviation="10" flood-color="#8bbcff" flood-opacity="0.7"/>
      <feDropShadow dx="0" dy="0" stdDeviation="18" flood-color="#6aa8ff" flood-opacity="0.35"/>
    </filter>
    <filter id="softGlow" x="-20%" y="-20%" width="140%" height="140%">
      <feDropShadow dx="0" dy="0" stdDeviation="4" flood-color="#ffffff" flood-opacity="0.45"/>
    </filter>
  </defs>
  <rect width="256" height="256" fill="#1a1d25"/>
  <path
    d="M44 36
       Q44 22 58 22
       H198
       Q222 22 222 46
       V182
       Q222 206 198 206
       H83
       L40 235
       L40 46
       Q40 36 44 36 Z"
    fill="url(#bg)"
    stroke="url(#stroke)"
    stroke-width="6"
    stroke-linejoin="round"
    filter="url(#outerGlow)"
  />
  <path
    d="M51 42
       Q51 31 62 31
       H194
       Q213 31 213 50
       V179
       Q213 198 194 198
       H80
       L49 219
       L49 50
       Q49 42 51 42 Z"
    fill="none"
    stroke="#dcecff"
    stroke-opacity="0.35"
    stroke-width="1.8"
    stroke-linejoin="round"
  />
  <text
    x="128"
    y="104"
    text-anchor="middle"
    font-family="'Segoe UI', 'Trebuchet MS', sans-serif"
    font-size="52"
    font-weight="300"
    letter-spacing="1.5"
    fill="#ffffff"
    filter="url(#softGlow)"
  >Local</text>
  <text
    x="128"
    y="158"
    text-anchor="middle"
    font-family="'Segoe UI', 'Trebuchet MS', sans-serif"
    font-size="48"
    font-weight="300"
    letter-spacing="1.2"
    fill="#ffffff"
    filter="url(#softGlow)"
  >.css</text>
</svg>
